<svg width="151" height="150" viewBox="0 0 151 150" fill="none" xmlns="http://www.w3.org/2000/svg">
<g clip-path="url(#clip0_191_263)">
<path d="M150.5 0H0.5V150H150.5V0Z" fill="white"/>
<path d="M86.0817 61.5241C86.0817 55.6803 81.3404 50.9446 75.4995 50.9446C69.6545 50.9446 64.9172 55.6803 64.9172 61.5241C64.9172 65.4922 67.1035 68.9434 70.3346 70.7557L70.5544 63.7353C70.5544 60.863 72.8846 58.5327 75.7597 58.5327H76.0551C78.3194 58.5327 80.1548 60.3678 80.1548 62.6323V71.0159C83.6581 69.2946 86.0817 65.6941 86.0817 61.5241Z" fill="#4D80AA"/>
<path d="M80.1547 62.6325C80.1547 60.3678 78.3192 58.5329 76.0549 58.5329H75.7596C72.8845 58.5329 70.5543 60.8631 70.5543 63.7354L70.3345 70.7559L69.847 86.2231C69.7364 86.7001 69.6731 97.4543 69.6731 97.4543C68.764 96.5274 67.752 95.4671 66.8429 94.4526C64.7202 92.0848 60.8199 90.4892 58.2275 90.1939C56.8619 90.0373 55.8192 90.2242 55.1251 90.7465C54.9031 90.9161 54.6858 91.1054 54.4814 91.3096C53.1436 92.6273 52.1338 94.7555 53.0679 96.3154C53.4716 96.9967 54.1655 97.4489 54.9029 97.9235C55.8799 98.557 57.5257 99.2435 58.7627 100.821C60.8343 103.472 65.6317 109.397 68.5799 112.56C69.1933 112.941 70.491 114.236 71.1044 114.564C72.965 115.753 74.4849 116.871 75.0119 117.477C75.4238 117.949 77.8595 119.196 77.8595 119.196C79.8289 120.443 83.4132 121.609 87.5533 121.609C91.6854 121.609 95.4397 121.857 98.214 119.416H98.3626L98.4358 119.232C101.258 116.647 103.013 113.064 103.013 109.104C103.013 108.124 103.013 104.512 103.013 103.833V90.1682C103.013 89.2397 102.809 86.1292 100.193 85.1951C98.9358 84.7484 97.7472 84.9175 96.7344 85.3544L96.4976 85.3646L96.4245 85.3694C95.9696 83.6606 94.8337 82.5574 93.1527 82.2646C91.123 81.9134 89.7164 82.5194 88.871 83.1332C88.0307 81.3257 86.3441 80.3838 84.0622 80.5757C82.3509 80.7201 81.0782 81.5603 80.1547 82.6685V71.0162V62.6325Z" fill="#EFB036"/>
<path d="M99.1123 79.094L101.213 81.4314C101.617 81.8857 102.349 81.8581 102.705 81.3659C106.754 75.7468 108.986 68.9839 108.986 61.8698C108.986 43.4037 93.9632 28.3835 75.4995 28.3835C74.2325 28.3835 72.9476 28.4544 71.6773 28.596C56.2684 30.3126 43.8766 42.7504 42.2131 58.1714C41.3065 66.5626 43.5279 74.7493 48.2916 81.3658C48.6448 81.8605 49.3769 81.8855 49.7865 81.4337L51.8839 79.0987C52.1821 78.768 52.2043 78.2782 51.9519 77.912C48.5897 72.9996 46.825 67.1329 47.0013 61.0318C47.4282 46.2238 59.3483 34.0839 74.1385 33.3946C90.492 32.5896 104.008 45.6987 104.008 61.8696C104.008 67.6559 102.243 73.2198 99.0393 77.9072C98.7894 78.2759 98.812 78.7635 99.1123 79.094Z" fill="#EFB036"/>
<path d="M89.6992 68.6178L91.923 71.0916C92.3773 71.6013 93.2033 71.4852 93.5084 70.8771C94.9123 68.1028 95.6517 65.0504 95.6517 61.8698C95.6517 52.3836 88.9167 44.0908 79.6315 42.1469C76.9235 41.5737 74.0779 41.5737 71.3619 42.1469C62.0822 44.0908 55.3473 52.3836 55.3473 61.8698C55.3473 65.0532 56.0868 68.1027 57.4882 70.8771C57.7989 71.4852 58.6194 71.6013 59.0761 71.0916L61.2975 68.6178C61.5475 68.3398 61.6053 67.9461 61.4642 67.6032C60.717 65.788 60.3233 63.8417 60.3233 61.8699C60.3233 55.5262 64.334 49.7963 70.3007 47.6124C73.6338 46.3956 77.3646 46.3956 80.6948 47.6124C86.6623 49.7963 90.671 55.5262 90.671 61.8699C90.671 63.8417 90.2774 65.788 89.535 67.6032C89.3937 67.9487 89.4509 68.3422 89.6992 68.6178Z" fill="#EFB036"/>
</g>
<defs>
<clipPath id="clip0_191_263">
<rect width="150" height="150" fill="white" transform="translate(0.5)"/>
</clipPath>
</defs>
</svg>
